<mxfile host="app.diagrams.net" modified="2024-04-01T07:26:56.453Z" agent="Mozilla/5.0 (Windows NT 10.0; Win64; x64) AppleWebKit/537.36 (KHTML, like Gecko) Chrome/123.0.0.0 Safari/537.36" version="24.2.1" etag="LGK9KybnEpjK5Zm_c3Zr" type="github">
  <diagram name="第 1 页" id="UJCkefSbutUrp8sNsTKL">
    <mxGraphModel>
      <root>
        <mxCell id="0" />
        <mxCell id="1" parent="0" />
      </root>
    </mxGraphModel>
  </diagram>
</mxfile>
